# xmcd
#
# Track frame offsets: 
#        150
#        24714
#        67183
#        94741
#        123457
#        139544
#        180834
#        209276
#        235441
#        267628
#        299872
#
# Disc length: 4530 seconds
#
# Revision: 0
# Processed by: cddbd v1.5.2PL0 Copyright (c) Steve Scherf et al.
# Submitted via: ExactAudioCopy v1.0b3
#
DISCID=af11b00b
DTITLE=Various Artist - D.Trance Vol. 61 - CD 1
DYEAR=1900
DGENRE=
TTITLE0=Luca Antolini - A New Poison (Sa.Vee.Oh. Remix)
TTITLE1=Allen Ma - Pearl River (Sky Flight Riverside Mix)
TTITLE2=Chris Menzi Pres. Wavetraxx - Das Boot 2013
TTITLE3=Maison and Dragen - Rio De Janeiro (Original Mix)
TTITLE4=Megara Vs. DJ Lee - Legacy (Radio Version)
TTITLE5=Physical Dreams - Don't Stop (Miami Mafia Mix)
TTITLE6=Rene Ablaze - Curiosity (Dima Krasnik Mix)
TTITLE7=Team Bastian - Tango (Original Mix)
TTITLE8=Protoculture - Perpetual Motion (Original Mix)
TTITLE9=Robert Gitelman - Children Of The Sun (Las Salinas 2012 Remix)
TTITLE10=Alex M.O.R.P.H. - Eternal Flame (Alex M.O.R.P.H.'s Reach Out 
TTITLE10=For The Stars Mix)
EXTD=
EXTT0=
EXTT1=
EXTT2=
EXTT3=
EXTT4=
EXTT5=
EXTT6=
EXTT7=
EXTT8=
EXTT9=
EXTT10=
PLAYORDER=
